<mxfile host="Electron" agent="Mozilla/5.0 (Macintosh; Intel Mac OS X 10_15_7) AppleWebKit/537.36 (KHTML, like Gecko) draw.io/26.0.4 Chrome/128.0.6613.186 Electron/32.2.5 Safari/537.36" version="26.0.4">
  <diagram name="PÃ¡gina-1" id="NIYZoepIBYHkyBzqfJiH">
    <mxGraphModel dx="679" dy="515" grid="1" gridSize="10" guides="1" tooltips="1" connect="1" arrows="1" fold="1" page="1" pageScale="1" pageWidth="827" pageHeight="1169" math="0" shadow="0">
      <root>
        <mxCell id="0" />
        <mxCell id="1" parent="0" />
        <mxCell id="t_VITdUKi0MXJXqAp_Fe-35" style="edgeStyle=orthogonalEdgeStyle;shape=connector;rounded=0;orthogonalLoop=1;jettySize=auto;html=1;entryX=0;entryY=0.5;entryDx=0;entryDy=0;strokeColor=default;align=center;verticalAlign=middle;fontFamily=Helvetica;fontSize=11;fontColor=default;labelBackgroundColor=default;endArrow=none;endFill=0;" edge="1" parent="1" source="t_VITdUKi0MXJXqAp_Fe-2" target="t_VITdUKi0MXJXqAp_Fe-34">
          <mxGeometry relative="1" as="geometry" />
        </mxCell>
        <mxCell id="t_VITdUKi0MXJXqAp_Fe-36" style="edgeStyle=orthogonalEdgeStyle;shape=connector;rounded=0;orthogonalLoop=1;jettySize=auto;html=1;entryX=0;entryY=0.5;entryDx=0;entryDy=0;strokeColor=default;align=center;verticalAlign=middle;fontFamily=Helvetica;fontSize=11;fontColor=default;labelBackgroundColor=default;endArrow=none;endFill=0;" edge="1" parent="1" source="t_VITdUKi0MXJXqAp_Fe-2" target="t_VITdUKi0MXJXqAp_Fe-33">
          <mxGeometry relative="1" as="geometry" />
        </mxCell>
        <mxCell id="t_VITdUKi0MXJXqAp_Fe-38" style="edgeStyle=orthogonalEdgeStyle;shape=connector;rounded=0;orthogonalLoop=1;jettySize=auto;html=1;entryX=0;entryY=0.5;entryDx=0;entryDy=0;strokeColor=default;align=center;verticalAlign=middle;fontFamily=Helvetica;fontSize=11;fontColor=default;labelBackgroundColor=default;endArrow=none;endFill=0;" edge="1" parent="1" source="t_VITdUKi0MXJXqAp_Fe-2" target="t_VITdUKi0MXJXqAp_Fe-37">
          <mxGeometry relative="1" as="geometry" />
        </mxCell>
        <mxCell id="t_VITdUKi0MXJXqAp_Fe-2" value="Entry" style="whiteSpace=wrap;html=1;align=center;" vertex="1" parent="1">
          <mxGeometry x="810" y="200" width="100" height="40" as="geometry" />
        </mxCell>
        <mxCell id="t_VITdUKi0MXJXqAp_Fe-23" style="edgeStyle=orthogonalEdgeStyle;rounded=0;orthogonalLoop=1;jettySize=auto;html=1;entryX=1;entryY=0.5;entryDx=0;entryDy=0;endArrow=none;endFill=0;" edge="1" parent="1" source="t_VITdUKi0MXJXqAp_Fe-3" target="t_VITdUKi0MXJXqAp_Fe-21">
          <mxGeometry relative="1" as="geometry" />
        </mxCell>
        <mxCell id="t_VITdUKi0MXJXqAp_Fe-24" style="edgeStyle=orthogonalEdgeStyle;shape=connector;rounded=0;orthogonalLoop=1;jettySize=auto;html=1;entryX=0.5;entryY=1;entryDx=0;entryDy=0;strokeColor=default;align=center;verticalAlign=middle;fontFamily=Helvetica;fontSize=11;fontColor=default;labelBackgroundColor=default;endArrow=none;endFill=0;" edge="1" parent="1" source="t_VITdUKi0MXJXqAp_Fe-3" target="t_VITdUKi0MXJXqAp_Fe-20">
          <mxGeometry relative="1" as="geometry" />
        </mxCell>
        <mxCell id="t_VITdUKi0MXJXqAp_Fe-25" style="edgeStyle=orthogonalEdgeStyle;shape=connector;rounded=0;orthogonalLoop=1;jettySize=auto;html=1;entryX=0;entryY=0.5;entryDx=0;entryDy=0;strokeColor=default;align=center;verticalAlign=middle;fontFamily=Helvetica;fontSize=11;fontColor=default;labelBackgroundColor=default;endArrow=none;endFill=0;" edge="1" parent="1" source="t_VITdUKi0MXJXqAp_Fe-3" target="t_VITdUKi0MXJXqAp_Fe-19">
          <mxGeometry relative="1" as="geometry" />
        </mxCell>
        <mxCell id="t_VITdUKi0MXJXqAp_Fe-26" style="edgeStyle=orthogonalEdgeStyle;shape=connector;rounded=0;orthogonalLoop=1;jettySize=auto;html=1;entryX=1;entryY=0.5;entryDx=0;entryDy=0;strokeColor=default;align=center;verticalAlign=middle;fontFamily=Helvetica;fontSize=11;fontColor=default;labelBackgroundColor=default;endArrow=none;endFill=0;" edge="1" parent="1" source="t_VITdUKi0MXJXqAp_Fe-3" target="t_VITdUKi0MXJXqAp_Fe-18">
          <mxGeometry relative="1" as="geometry" />
        </mxCell>
        <mxCell id="t_VITdUKi0MXJXqAp_Fe-27" style="edgeStyle=orthogonalEdgeStyle;shape=connector;rounded=0;orthogonalLoop=1;jettySize=auto;html=1;entryX=0.5;entryY=0;entryDx=0;entryDy=0;strokeColor=default;align=center;verticalAlign=middle;fontFamily=Helvetica;fontSize=11;fontColor=default;labelBackgroundColor=default;endArrow=none;endFill=0;" edge="1" parent="1" source="t_VITdUKi0MXJXqAp_Fe-3" target="t_VITdUKi0MXJXqAp_Fe-15">
          <mxGeometry relative="1" as="geometry" />
        </mxCell>
        <mxCell id="t_VITdUKi0MXJXqAp_Fe-30" style="edgeStyle=orthogonalEdgeStyle;shape=connector;rounded=0;orthogonalLoop=1;jettySize=auto;html=1;entryX=0;entryY=0.5;entryDx=0;entryDy=0;strokeColor=default;align=center;verticalAlign=middle;fontFamily=Helvetica;fontSize=11;fontColor=default;labelBackgroundColor=default;endArrow=none;endFill=0;" edge="1" parent="1" source="t_VITdUKi0MXJXqAp_Fe-3" target="t_VITdUKi0MXJXqAp_Fe-28">
          <mxGeometry relative="1" as="geometry" />
        </mxCell>
        <mxCell id="t_VITdUKi0MXJXqAp_Fe-3" value="Subject" style="whiteSpace=wrap;html=1;align=center;" vertex="1" parent="1">
          <mxGeometry x="440" y="200" width="100" height="40" as="geometry" />
        </mxCell>
        <mxCell id="t_VITdUKi0MXJXqAp_Fe-11" style="edgeStyle=orthogonalEdgeStyle;rounded=0;orthogonalLoop=1;jettySize=auto;html=1;entryX=0.5;entryY=1;entryDx=0;entryDy=0;endArrow=none;endFill=0;" edge="1" parent="1" source="t_VITdUKi0MXJXqAp_Fe-4" target="t_VITdUKi0MXJXqAp_Fe-8">
          <mxGeometry relative="1" as="geometry" />
        </mxCell>
        <mxCell id="t_VITdUKi0MXJXqAp_Fe-12" style="edgeStyle=orthogonalEdgeStyle;rounded=0;orthogonalLoop=1;jettySize=auto;html=1;entryX=0.5;entryY=1;entryDx=0;entryDy=0;endArrow=none;endFill=0;" edge="1" parent="1" source="t_VITdUKi0MXJXqAp_Fe-4" target="t_VITdUKi0MXJXqAp_Fe-7">
          <mxGeometry relative="1" as="geometry" />
        </mxCell>
        <mxCell id="t_VITdUKi0MXJXqAp_Fe-13" style="edgeStyle=orthogonalEdgeStyle;rounded=0;orthogonalLoop=1;jettySize=auto;html=1;entryX=0.5;entryY=0;entryDx=0;entryDy=0;endArrow=none;endFill=0;" edge="1" parent="1" source="t_VITdUKi0MXJXqAp_Fe-4" target="t_VITdUKi0MXJXqAp_Fe-6">
          <mxGeometry relative="1" as="geometry" />
        </mxCell>
        <mxCell id="t_VITdUKi0MXJXqAp_Fe-14" style="edgeStyle=orthogonalEdgeStyle;rounded=0;orthogonalLoop=1;jettySize=auto;html=1;entryX=1;entryY=0.5;entryDx=0;entryDy=0;endArrow=none;endFill=0;" edge="1" parent="1" source="t_VITdUKi0MXJXqAp_Fe-4" target="t_VITdUKi0MXJXqAp_Fe-5">
          <mxGeometry relative="1" as="geometry" />
        </mxCell>
        <mxCell id="t_VITdUKi0MXJXqAp_Fe-22" style="edgeStyle=orthogonalEdgeStyle;rounded=0;orthogonalLoop=1;jettySize=auto;html=1;entryX=0;entryY=0.5;entryDx=0;entryDy=0;endArrow=none;endFill=0;" edge="1" parent="1" source="t_VITdUKi0MXJXqAp_Fe-4" target="t_VITdUKi0MXJXqAp_Fe-21">
          <mxGeometry relative="1" as="geometry" />
        </mxCell>
        <mxCell id="t_VITdUKi0MXJXqAp_Fe-4" value="Period" style="whiteSpace=wrap;html=1;align=center;" vertex="1" parent="1">
          <mxGeometry x="130" y="200" width="100" height="40" as="geometry" />
        </mxCell>
        <mxCell id="t_VITdUKi0MXJXqAp_Fe-5" value="description" style="ellipse;whiteSpace=wrap;html=1;align=center;" vertex="1" parent="1">
          <mxGeometry x="40" y="320" width="100" height="40" as="geometry" />
        </mxCell>
        <mxCell id="t_VITdUKi0MXJXqAp_Fe-6" value="final_date" style="ellipse;whiteSpace=wrap;html=1;align=center;" vertex="1" parent="1">
          <mxGeometry x="10" y="260" width="100" height="40" as="geometry" />
        </mxCell>
        <mxCell id="t_VITdUKi0MXJXqAp_Fe-7" value="initial_date" style="ellipse;whiteSpace=wrap;html=1;align=center;" vertex="1" parent="1">
          <mxGeometry x="10" y="130" width="100" height="40" as="geometry" />
        </mxCell>
        <mxCell id="t_VITdUKi0MXJXqAp_Fe-8" value="id" style="ellipse;whiteSpace=wrap;html=1;align=center;fontStyle=4" vertex="1" parent="1">
          <mxGeometry x="130" y="110" width="100" height="40" as="geometry" />
        </mxCell>
        <mxCell id="t_VITdUKi0MXJXqAp_Fe-15" value="final_mark" style="ellipse;whiteSpace=wrap;html=1;align=center;" vertex="1" parent="1">
          <mxGeometry x="440" y="300" width="100" height="40" as="geometry" />
        </mxCell>
        <mxCell id="t_VITdUKi0MXJXqAp_Fe-18" value="name" style="ellipse;whiteSpace=wrap;html=1;align=center;" vertex="1" parent="1">
          <mxGeometry x="360" y="110" width="100" height="40" as="geometry" />
        </mxCell>
        <mxCell id="t_VITdUKi0MXJXqAp_Fe-19" value="short_name" style="ellipse;whiteSpace=wrap;html=1;align=center;" vertex="1" parent="1">
          <mxGeometry x="520" y="110" width="100" height="40" as="geometry" />
        </mxCell>
        <mxCell id="t_VITdUKi0MXJXqAp_Fe-20" value="id" style="ellipse;whiteSpace=wrap;html=1;align=center;fontStyle=4" vertex="1" parent="1">
          <mxGeometry x="440" y="50" width="100" height="40" as="geometry" />
        </mxCell>
        <mxCell id="t_VITdUKi0MXJXqAp_Fe-21" value="ENROLLED" style="shape=rhombus;perimeter=rhombusPerimeter;whiteSpace=wrap;html=1;align=center;" vertex="1" parent="1">
          <mxGeometry x="280" y="190" width="120" height="60" as="geometry" />
        </mxCell>
        <mxCell id="t_VITdUKi0MXJXqAp_Fe-29" style="edgeStyle=orthogonalEdgeStyle;shape=connector;rounded=0;orthogonalLoop=1;jettySize=auto;html=1;entryX=0;entryY=0.5;entryDx=0;entryDy=0;strokeColor=default;align=center;verticalAlign=middle;fontFamily=Helvetica;fontSize=11;fontColor=default;labelBackgroundColor=default;endArrow=none;endFill=0;" edge="1" parent="1" source="t_VITdUKi0MXJXqAp_Fe-28" target="t_VITdUKi0MXJXqAp_Fe-2">
          <mxGeometry relative="1" as="geometry" />
        </mxCell>
        <mxCell id="t_VITdUKi0MXJXqAp_Fe-28" value="STUDIED" style="shape=rhombus;perimeter=rhombusPerimeter;whiteSpace=wrap;html=1;align=center;fontFamily=Helvetica;fontSize=11;fontColor=default;labelBackgroundColor=default;" vertex="1" parent="1">
          <mxGeometry x="610" y="190" width="120" height="60" as="geometry" />
        </mxCell>
        <mxCell id="t_VITdUKi0MXJXqAp_Fe-31" value="(0,1&lt;span style=&quot;background-color: light-dark(#ffffff, var(--ge-dark-color, #121212)); color: light-dark(rgb(0, 0, 0), rgb(255, 255, 255));&quot;&gt;)&lt;/span&gt;" style="text;strokeColor=none;fillColor=none;spacingLeft=4;spacingRight=4;overflow=hidden;rotatable=0;points=[[0,0.5],[1,0.5]];portConstraint=eastwest;fontSize=11;whiteSpace=wrap;html=1;fontFamily=Helvetica;fontColor=default;labelBackgroundColor=default;" vertex="1" parent="1">
          <mxGeometry x="490" y="260" width="40" height="30" as="geometry" />
        </mxCell>
        <mxCell id="t_VITdUKi0MXJXqAp_Fe-33" value="date" style="ellipse;whiteSpace=wrap;html=1;align=center;fontFamily=Helvetica;fontSize=11;fontColor=default;labelBackgroundColor=default;" vertex="1" parent="1">
          <mxGeometry x="890" y="100" width="100" height="40" as="geometry" />
        </mxCell>
        <mxCell id="t_VITdUKi0MXJXqAp_Fe-34" value="id" style="ellipse;whiteSpace=wrap;html=1;align=center;fontFamily=Helvetica;fontSize=11;fontColor=default;labelBackgroundColor=default;fontStyle=4" vertex="1" parent="1">
          <mxGeometry x="890" y="40" width="100" height="40" as="geometry" />
        </mxCell>
        <mxCell id="t_VITdUKi0MXJXqAp_Fe-37" value="dedicated_time" style="ellipse;whiteSpace=wrap;html=1;align=center;fontFamily=Helvetica;fontSize=11;fontColor=default;labelBackgroundColor=default;" vertex="1" parent="1">
          <mxGeometry x="890" y="150" width="100" height="40" as="geometry" />
        </mxCell>
        <mxCell id="t_VITdUKi0MXJXqAp_Fe-39" value="(1,n)" style="text;strokeColor=none;fillColor=none;spacingLeft=4;spacingRight=4;overflow=hidden;rotatable=0;points=[[0,0.5],[1,0.5]];portConstraint=eastwest;fontSize=11;whiteSpace=wrap;html=1;fontFamily=Helvetica;fontColor=default;labelBackgroundColor=default;" vertex="1" parent="1">
          <mxGeometry x="240" y="190" width="40" height="30" as="geometry" />
        </mxCell>
        <mxCell id="t_VITdUKi0MXJXqAp_Fe-40" value="(1,1)" style="text;strokeColor=none;fillColor=none;spacingLeft=4;spacingRight=4;overflow=hidden;rotatable=0;points=[[0,0.5],[1,0.5]];portConstraint=eastwest;fontSize=11;whiteSpace=wrap;html=1;fontFamily=Helvetica;fontColor=default;labelBackgroundColor=default;" vertex="1" parent="1">
          <mxGeometry x="394" y="190" width="40" height="30" as="geometry" />
        </mxCell>
        <mxCell id="t_VITdUKi0MXJXqAp_Fe-54" value="(1,n)" style="text;strokeColor=none;fillColor=none;spacingLeft=4;spacingRight=4;overflow=hidden;rotatable=0;points=[[0,0.5],[1,0.5]];portConstraint=eastwest;fontSize=11;whiteSpace=wrap;html=1;fontFamily=Helvetica;fontColor=default;labelBackgroundColor=default;" vertex="1" parent="1">
          <mxGeometry x="560" y="190" width="40" height="30" as="geometry" />
        </mxCell>
        <mxCell id="t_VITdUKi0MXJXqAp_Fe-55" value="(1,1)" style="text;strokeColor=none;fillColor=none;spacingLeft=4;spacingRight=4;overflow=hidden;rotatable=0;points=[[0,0.5],[1,0.5]];portConstraint=eastwest;fontSize=11;whiteSpace=wrap;html=1;fontFamily=Helvetica;fontColor=default;labelBackgroundColor=default;" vertex="1" parent="1">
          <mxGeometry x="750" y="190" width="40" height="30" as="geometry" />
        </mxCell>
      </root>
    </mxGraphModel>
  </diagram>
</mxfile>
